<?xml version="1.0" standalone="no"?><!DOCTYPE svg PUBLIC "-//W3C//DTD SVG 1.1//EN" "http://www.w3.org/Graphics/SVG/1.1/DTD/svg11.dtd"><svg t="1633133657429" class="icon" viewBox="0 0 1024 1024" version="1.1" xmlns="http://www.w3.org/2000/svg" p-id="22008" width="128" height="128" xmlns:xlink="http://www.w3.org/1999/xlink"><defs><style type="text/css"></style></defs><path d="M629.443335 890.709386q34.32959 9.937513 72.272821 22.585257t67.75577 25.295488 45.170513 23.488667 4.517051 17.164795q-28.909129 15.357975-76.338168 25.295488t-103.892181 14.906269-116.539925 4.517051-112.926283-5.420462-93.954668-14.906269-59.173373-24.392077q-9.937513-8.130692 5.420462-19.423321t44.718808-23.488667 66.85236-23.940372 71.821116-21.681846q16.261385-4.517051 24.843782 0.90341t16.261385 13.551154 18.971616 15.357975 32.974475 7.227282 32.52277-7.227282 18.971616-15.357975 16.261385-13.551154 23.488667-0.90341zM371.067998 250.191506q-2.710231-6.323872 1.806821-11.744333t11.744333-9.937513q8.130692-4.517051 19.875026-9.034103l-5.420462-10.840923q-3.613641-6.323872-9.034103-16.261385t-12.647744-25.295488q-8.130692-15.357975-5.872167-27.102308t10.840923-15.357975 20.326731 2.710231 22.585257 26.198898q10.840923 20.778436 30.264244 51.494385t39.298347 59.625078q23.488667 34.32959 48.784154 70.466001l57.818257-46.073924q-0.90341-9.937513-3.613641-20.778436-1.806821-9.937513-5.420462-21.681846t-10.840923-25.295488q-6.323872-12.647744-4.968756-24.392077t6.775577-17.6165 14.002859-4.968756 15.80968 12.647744 16.71309 23.940372 17.6165 22.133552l19.875026 23.488667 87.630796-18.971616 14.454564 33.42618-48.784154 32.52277q-20.778436 13.551154-42.008577 27.554013t-35.684706 23.036962-29.812539 21.681846-28.005718 29.812539-20.778436 39.298347-8.130692 49.23586l0 69.562591-1.806821 84.920565 0 77.693283t1.806821 47.880744 7.227282 23.940372 11.744333 20.326731q7.227282 9.937513 15.357975 18.971616-6.323872 9.034103-15.357975 17.164795-8.130692 7.227282-19.875026 13.551154t-28.005718 8.130692-29.360834-2.258526-23.036962-8.582398q-10.840923-5.420462-19.875026-13.551154 3.613641-16.261385 7.227282-33.42618 2.710231-15.357975 4.968756-32.52277t2.258526-33.42618l0-261.988978q0-24.392077 1.806821-47.880744t4.517051-41.556872q3.613641-21.681846 7.227282-40.653462-15.357975-28.005718-28.005718-49.687565-10.840923-18.068205-21.230141-33.42618t-14.002859-13.551154-10.840923 2.258526-14.454564-0.90341-14.002859-4.968756-9.485808-9.937513zM310.53951 418.225815q-18.068205 20.778436-38.846642 31.167654t-38.846642 14.906269q-21.681846 4.517051-41.556872 3.613641-8.130692-12.647744-10.840923-28.909129-1.806821-14.454564 0.90341-36.136411t18.068205-52.397796q14.454564-29.812539 40.201757-45.622219t50.13927-23.036962q28.909129-8.130692 60.528488-8.130692-9.034103 16.261385-9.485808 32.974475t-1.355115 34.32959-5.872167 37.039821-23.036962 40.201757zM861.619774 334.208661q18.068205 18.068205 26.650603 32.52277t11.292628 25.295488q3.613641 12.647744 0.90341 23.488667-14.454564 6.323872-30.715949 9.034103-13.551154 1.806821-31.619359 0.451705t-36.136411-11.292628q-18.068205-9.034103-27.102308-21.230141t-14.906269-24.392077-10.840923-23.940372-15.80968-20.778436q21.681846-9.034103 45.170513-11.744333 18.971616-1.806821 41.556872 1.806821t41.556872 20.778436zM193.999586 149.009556q-28.909129-9.937513-53.301206-28.005718t-42.460283-35.233q-20.778436-19.875026-37.943231-42.460283 21.681846-23.488667 46.073924-33.42618 20.778436-9.034103 48.784154-6.775577t59.625078 31.167654q31.619359 29.812539 48.784154 50.590975t27.102308 33.42618q9.937513 15.357975 14.454564 25.295488-9.937513 9.034103-26.198898 12.647744-13.551154 3.613641-34.781295 3.161936t-50.13927-10.389218zM841.744748 8.980964q46.073924-11.744333 72.272821-8.130692t40.653462 13.551154q16.261385 10.840923 22.585257 29.812539-11.744333 18.068205-28.005718 36.136411-13.551154 15.357975-33.42618 32.974475t-45.170513 30.264244q-25.295488 13.551154-46.977334 17.6165t-39.298347 6.775577-29.812539 9.034103-18.51991 23.488667q-1.806821-45.170513 8.130692-84.017155 4.517051-16.261385 11.744333-32.974475t18.51991-31.167654 28.005718-25.747193 39.298347-17.6165z" p-id="22009"></path></svg>